<svg width="19" height="15" viewBox="0 0 19 15" fill="none" xmlns="http://www.w3.org/2000/svg">
<g opacity="0.94">
<path fill-rule="evenodd" clip-rule="evenodd" d="M0 0.9375C0 0.419733 0.419733 0 0.9375 0H17.8125C18.3303 0 18.75 0.419733 18.75 0.9375C18.75 1.45527 18.3303 1.875 17.8125 1.875H0.9375C0.419733 1.875 0 1.45527 0 0.9375ZM0 7.49993C0 6.98216 0.419733 6.56243 0.9375 6.56243H13.125C13.6428 6.56243 14.0625 6.98216 14.0625 7.49993C14.0625 8.01769 13.6428 8.43743 13.125 8.43743H0.9375C0.419733 8.43743 0 8.01769 0 7.49993ZM0.9375 13.1251C0.419733 13.1251 0 13.5448 0 14.0626C0 14.5803 0.419733 15.0001 0.9375 15.0001H17.8125C18.3303 15.0001 18.75 14.5803 18.75 14.0626C18.75 13.5448 18.3303 13.1251 17.8125 13.1251H0.9375Z" fill="#232324"/>
</g>
</svg>
