<svg width="21" height="25" viewBox="0 0 21 25" fill="none" xmlns="http://www.w3.org/2000/svg">
<path d="M6.24375 22.1154C7.22502 23.3628 8.76655 24.1666 10.5 24.1666C12.2335 24.1666 13.775 23.3628 14.7563 22.1154C11.9308 22.4982 9.06917 22.4982 6.24375 22.1154Z" fill="#F76436"/>
<path d="M18.374 8.99992V9.82137C18.374 10.8072 18.6553 11.771 19.1826 12.5912L20.4746 14.6013C21.6547 16.4372 20.7538 18.9328 18.7012 19.5134C13.3318 21.0322 7.6682 21.0322 2.29876 19.5134C0.246221 18.9328 -0.654706 16.4372 0.525419 14.6013L1.81743 12.5912C2.34467 11.771 2.62601 10.8072 2.62601 9.82137V8.99992C2.62601 4.48959 6.15132 0.833252 10.5 0.833252C14.8487 0.833252 18.374 4.48959 18.374 8.99992Z" fill="#F76436"/>
</svg>
