<svg width="25" height="25" viewBox="0 0 25 25" fill="none" xmlns="http://www.w3.org/2000/svg">
<path d="M17.9688 9.37498C17.9688 10.4566 17.648 11.5139 17.0471 12.4132C16.4462 13.3126 15.5921 14.0135 14.5928 14.4274C13.5935 14.8414 12.4939 14.9497 11.4331 14.7386C10.3723 14.5276 9.39783 14.0068 8.63301 13.242C7.86819 12.4771 7.34734 11.5027 7.13633 10.4419C6.92532 9.38104 7.03362 8.28146 7.44753 7.28217C7.86145 6.28289 8.56239 5.42879 9.46172 4.82788C10.3611 4.22696 11.4184 3.90622 12.5 3.90622C13.9504 3.90622 15.3414 4.48239 16.367 5.50798C17.3926 6.53357 17.9688 7.92457 17.9688 9.37498ZM21.0938 9.37498C21.0939 10.6409 20.8138 11.8911 20.2735 13.0358C19.7332 14.1806 18.9461 15.1916 17.9688 15.9961V23.4375C17.9688 23.6447 17.8864 23.8434 17.7399 23.9899C17.5934 24.1364 17.3947 24.2187 17.1875 24.2187C17.0663 24.2162 16.9468 24.1896 16.8359 24.1406L12.5 21.9629L8.16406 24.1406C8.04434 24.1997 7.91146 24.2272 7.77811 24.2203C7.64476 24.2135 7.51539 24.1726 7.40234 24.1015C7.28838 24.0324 7.19429 23.9348 7.12926 23.8184C7.06422 23.702 7.03045 23.5708 7.03125 23.4375V15.9961C5.914 15.0744 5.04782 13.8853 4.51318 12.5392C3.97854 11.1931 3.79278 9.73375 3.97316 8.29666C4.15354 6.85958 4.69421 5.49139 5.54494 4.3192C6.39567 3.14702 7.52887 2.20887 8.83925 1.59189C10.1496 0.974922 11.5947 0.699148 13.0402 0.79019C14.4857 0.881232 15.8847 1.33614 17.1074 2.11265C18.33 2.88916 19.3365 3.96208 20.0334 5.23174C20.7304 6.5014 21.0951 7.92661 21.0938 9.37498ZM19.5312 9.37498C19.5312 7.98432 19.1189 6.6249 18.3463 5.46862C17.5737 4.31234 16.4755 3.41113 15.1907 2.87895C13.9059 2.34677 12.4922 2.20753 11.1283 2.47883C9.76434 2.75013 8.51149 3.41979 7.52815 4.40313C6.54482 5.38647 5.87515 6.63932 5.60385 8.00325C5.33255 9.36718 5.47179 10.7809 6.00397 12.0657C6.53615 13.3505 7.43736 14.4486 8.59365 15.2212C9.74993 15.9939 11.1093 16.4062 12.5 16.4062C14.364 16.4036 16.1509 15.662 17.469 14.344C18.787 13.0259 19.5287 11.239 19.5312 9.37498Z" fill="white"/>
</svg>
