<svg width="25" height="25" viewBox="0 0 25 25" fill="none" xmlns="http://www.w3.org/2000/svg">
<path fill-rule="evenodd" clip-rule="evenodd" d="M1.30005 0C0.747764 0 0.300049 0.44772 0.300049 1C0.300049 1.55228 0.747764 2 1.30005 2H3.50652L6.28527 13.9089C6.69888 15.6816 8.25491 16.9464 10.0648 16.9983V17H17.8874C19.8362 17 21.5014 15.5956 21.8301 13.6747L23.0857 6.33734C23.2947 5.11571 22.3538 4 21.1143 4H6.02691L5.27389 0.77277C5.16829 0.32018 4.7648 0 4.30005 0H1.30005ZM6.49358 6L8.23295 13.4545C8.44416 14.3596 9.25114 15 10.1806 15H17.8874C18.8618 15 19.6944 14.2978 19.8588 13.3373L21.1143 6H6.49358Z" fill="#484C52"/>
<path d="M8.70752 25C9.81209 25 10.7075 24.1046 10.7075 23C10.7075 21.8954 9.81209 21 8.70752 21C7.60295 21 6.70752 21.8954 6.70752 23C6.70752 24.1046 7.60295 25 8.70752 25Z" fill="#484C52"/>
<path d="M19 25C20.1046 25 21 24.1046 21 23C21 21.8954 20.1046 21 19 21C17.8954 21 17 21.8954 17 23C17 24.1046 17.8954 25 19 25Z" fill="#484C52"/>
</svg>
