<svg width="25" height="25" viewBox="0 0 25 25" fill="none" xmlns="http://www.w3.org/2000/svg">
<path fill-rule="evenodd" clip-rule="evenodd" d="M1.75 0C1.19771 0 0.75 0.44772 0.75 1C0.75 1.55228 1.19771 2 1.75 2H3.95647L6.73522 13.9089C7.14883 15.6816 8.70486 16.9464 10.5147 16.9983V17H18.3374C20.2862 17 21.9514 15.5956 22.2801 13.6747L23.5357 6.33734C23.7447 5.11571 22.8037 4 21.5643 4H6.47686L5.72384 0.77277C5.61824 0.32018 5.21475 0 4.75 0H1.75ZM6.94353 6L8.6829 13.4545C8.89411 14.3596 9.70109 15 10.6306 15H18.3374C19.3118 15 20.1444 14.2978 20.3088 13.3373L21.5643 6H6.94353Z" fill="#F9881F"/>
<path d="M9.15747 25C10.262 25 11.1575 24.1046 11.1575 23C11.1575 21.8954 10.262 21 9.15747 21C8.0529 21 7.15747 21.8954 7.15747 23C7.15747 24.1046 8.0529 25 9.15747 25Z" fill="#F9881F"/>
<path d="M19.45 25C20.5546 25 21.45 24.1046 21.45 23C21.45 21.8954 20.5546 21 19.45 21C18.3454 21 17.45 21.8954 17.45 23C17.45 24.1046 18.3454 25 19.45 25Z" fill="#F9881F"/>
</svg>
