<svg width="24" height="24" viewBox="0 0 24 24" fill="none" xmlns="http://www.w3.org/2000/svg">
<path d="M17.2611 0.504134L5.78548 4.31788C-1.92849 6.89851 -1.92849 11.1064 5.78548 13.6743L9.19133 14.8057L10.3223 18.2126C12.8894 25.9291 17.1086 25.9291 19.6757 18.2126L23.5009 6.74596C25.2038 1.59741 22.408 -1.21205 17.2611 0.504134ZM17.6678 7.34345L12.8386 12.1996C12.648 12.3903 12.4065 12.4793 12.165 12.4793C11.9236 12.4793 11.6821 12.3903 11.4915 12.1996C11.1229 11.831 11.1229 11.2208 11.4915 10.8521L16.3207 5.99592C16.6892 5.62726 17.2992 5.62726 17.6678 5.99592C18.0363 6.36458 18.0363 6.97478 17.6678 7.34345Z" fill="#F76436"/>
</svg>
