<svg width="25" height="24" viewBox="0 0 25 24" fill="none" xmlns="http://www.w3.org/2000/svg">
<path d="M19.8217 19.8211C19.6317 19.8211 19.4417 19.7511 19.2917 19.6011C19.0017 19.3111 19.0017 18.8311 19.2917 18.5411C22.9017 14.9311 22.9017 9.06109 19.2917 5.46109C19.0017 5.17109 19.0017 4.69109 19.2917 4.40109C19.5817 4.11109 20.0617 4.11109 20.3517 4.40109C24.5417 8.59109 24.5417 15.4111 20.3517 19.6011C20.2017 19.7511 20.0117 19.8211 19.8217 19.8211Z" fill="#F9881F"/>
<path d="M5.68031 19.8211C5.49031 19.8211 5.30031 19.7511 5.15031 19.6011C0.960313 15.4111 0.960313 8.59109 5.15031 4.40109C5.44031 4.11109 5.92031 4.11109 6.21031 4.40109C6.50031 4.69109 6.50031 5.17109 6.21031 5.46109C2.60031 9.07109 2.60031 14.9411 6.21031 18.5411C6.50031 18.8311 6.50031 19.3111 6.21031 19.6011C6.06031 19.7511 5.87031 19.8211 5.68031 19.8211Z" fill="#F9881F"/>
<path d="M12.7488 22.7119C11.4988 22.7019 10.3088 22.5019 9.19878 22.1119C8.80878 21.9719 8.59878 21.5419 8.73878 21.1519C8.87878 20.7619 9.29878 20.5519 9.69878 20.6919C10.6588 21.0219 11.6788 21.2019 12.7588 21.2019C13.8288 21.2019 14.8588 21.0219 15.8088 20.6919C16.1988 20.5619 16.6288 20.7619 16.7688 21.1519C16.9088 21.5419 16.6988 21.9719 16.3088 22.1119C15.1888 22.5019 13.9988 22.7119 12.7488 22.7119Z" fill="#F9881F"/>
<path d="M16.0488 3.33906C15.9688 3.33906 15.8788 3.32906 15.7988 3.29906C14.8488 2.95906 13.8188 2.78906 12.7488 2.78906C11.6788 2.78906 10.6588 2.96906 9.69878 3.29906C9.29878 3.42906 8.87878 3.22906 8.73878 2.83906C8.59878 2.44906 8.80878 2.01906 9.19878 1.87906C10.3188 1.48906 11.5088 1.28906 12.7488 1.28906C13.9888 1.28906 15.1888 1.48906 16.2988 1.87906C16.6888 2.01906 16.8988 2.44906 16.7588 2.83906C16.6488 3.14906 16.3588 3.33906 16.0488 3.33906Z" fill="#F9881F"/>
<path d="M9.48828 12.0001V10.3301C9.48828 8.25014 10.9583 7.40014 12.7583 8.44014L14.2083 9.28014L15.6583 10.1201C17.4583 11.1601 17.4583 12.8601 15.6583 13.9001L14.2083 14.7401L12.7583 15.5801C10.9583 16.6201 9.48828 15.7701 9.48828 13.6901V12.0001Z" fill="#F9881F"/>
</svg>
