<svg width="35" height="31" viewBox="0 0 35 31" fill="none" xmlns="http://www.w3.org/2000/svg">
<g filter="url(#filter0_b_1379_1015)">
<path d="M18.6706 2.95797L17.5003 4.21668L16.3301 2.958C12.6897 -0.957317 6.78758 -0.957321 3.14725 2.95799C-0.39532 6.76816 -0.50417 12.9086 2.90079 16.8612L12.6833 28.2172C15.2821 31.234 19.7185 31.234 22.3173 28.2172L32.0999 16.8612C35.5048 12.9085 35.396 6.76812 31.8534 2.95796C28.2131 -0.957345 22.311 -0.957341 18.6706 2.95797Z" fill="white"/>
<path d="M26.0419 4.38653C25.3467 4.38653 24.783 4.95018 24.783 5.64546C24.783 6.34075 25.3467 6.90439 26.0419 6.90439C27.1778 6.90439 28.1997 7.88789 28.1997 9.2288C28.1997 9.92408 28.7633 10.4877 29.4586 10.4877C30.1539 10.4877 30.7175 9.92408 30.7175 9.2288C30.7175 6.61167 28.68 4.38653 26.0419 4.38653ZM16.5783 5.07391C16.8165 5.33008 17.1505 5.4756 17.5003 5.4756C17.8501 5.4756 18.1841 5.33008 18.4223 5.07391L19.5926 3.8152C22.735 0.435486 27.7891 0.435484 30.9314 3.81519C34.0353 7.15353 34.1341 12.5708 31.146 16.0395L21.3635 27.3955C19.2669 29.8294 15.7337 29.8294 13.6371 27.3955L3.85461 16.0396C0.866503 12.5708 0.965353 7.15356 4.06923 3.81522C7.21158 0.435507 12.2657 0.43551 15.4081 3.81523L16.5783 5.07391Z" stroke="white" stroke-width="2.51786" stroke-linecap="round" stroke-linejoin="round"/>
</g>
<defs>
<filter id="filter0_b_1379_1015" x="-3.58301" y="-3.97852" width="42.167" height="38.458" filterUnits="userSpaceOnUse" color-interpolation-filters="sRGB">
<feFlood flood-opacity="0" result="BackgroundImageFix"/>
<feGaussianBlur in="BackgroundImageFix" stdDeviation="2"/>
<feComposite in2="SourceAlpha" operator="in" result="effect1_backgroundBlur_1379_1015"/>
<feBlend mode="normal" in="SourceGraphic" in2="effect1_backgroundBlur_1379_1015" result="shape"/>
</filter>
</defs>
</svg>
