<svg width="26" height="26" viewBox="0 0 26 26" fill="none" xmlns="http://www.w3.org/2000/svg">
<path d="M13.0001 9.20835L15.2924 14.7204L21.2421 15.197L16.7094 19.0797L18.0939 24.8864L13.0001 21.775L7.90622 24.8864L9.29072 19.0797L4.75806 15.197L10.7077 14.7204L13.0001 9.20835ZM13.0001 14.8493L12.1995 16.7744L10.1238 16.9401L11.7055 18.2954L11.2212 20.3223L13.0001 19.2357L14.7778 20.3223L14.2946 18.2964L15.8752 16.9401L13.8006 16.7744L13.0001 14.8493ZM8.66672 2.16669V11.9167H6.50006V2.16669H8.66672ZM19.5001 2.16669V11.9167H17.3334V2.16669H19.5001ZM14.0834 2.16669V7.58335H11.9167V2.16669H14.0834Z" fill="white"/>
</svg>
