<svg width="27" height="30" viewBox="0 0 27 30" fill="none" xmlns="http://www.w3.org/2000/svg">
<g filter="url(#filter0_d_1275_7268)">
<path fill-rule="evenodd" clip-rule="evenodd" d="M5.56444 15.4645C6.50212 14.5268 7.77389 14 9.09998 14H17.1C18.4261 14 19.6978 14.5268 20.6355 15.4645C21.5732 16.4021 22.1 17.6739 22.1 19V21C22.1 21.5523 21.6523 22 21.1 22C20.5477 22 20.1 21.5523 20.1 21V19C20.1 18.2044 19.7839 17.4413 19.2213 16.8787C18.6587 16.3161 17.8956 16 17.1 16H9.09998C8.30433 16 7.54126 16.3161 6.97866 16.8787C6.41605 17.4413 6.09998 18.2044 6.09998 19V21C6.09998 21.5523 5.65226 22 5.09998 22C4.54769 22 4.09998 21.5523 4.09998 21V19C4.09998 17.6739 4.62676 16.4021 5.56444 15.4645Z" fill="#F9881F"/>
<path fill-rule="evenodd" clip-rule="evenodd" d="M13.1 4C11.4431 4 10.1 5.34315 10.1 7C10.1 8.65685 11.4431 10 13.1 10C14.7568 10 16.1 8.65685 16.1 7C16.1 5.34315 14.7568 4 13.1 4ZM8.09998 7C8.09998 4.23858 10.3386 2 13.1 2C15.8614 2 18.1 4.23858 18.1 7C18.1 9.76142 15.8614 12 13.1 12C10.3386 12 8.09998 9.76142 8.09998 7Z" fill="#F9881F"/>
</g>
<defs>
<filter id="filter0_d_1275_7268" x="-2.90002" y="0" width="32" height="32" filterUnits="userSpaceOnUse" color-interpolation-filters="sRGB">
<feFlood flood-opacity="0" result="BackgroundImageFix"/>
<feColorMatrix in="SourceAlpha" type="matrix" values="0 0 0 0 0 0 0 0 0 0 0 0 0 0 0 0 0 0 127 0" result="hardAlpha"/>
<feOffset dy="4"/>
<feGaussianBlur stdDeviation="2"/>
<feComposite in2="hardAlpha" operator="out"/>
<feColorMatrix type="matrix" values="0 0 0 0 0 0 0 0 0 0 0 0 0 0 0 0 0 0 0.25 0"/>
<feBlend mode="normal" in2="BackgroundImageFix" result="effect1_dropShadow_1275_7268"/>
<feBlend mode="normal" in="SourceGraphic" in2="effect1_dropShadow_1275_7268" result="shape"/>
</filter>
</defs>
</svg>
