<svg width="26" height="26" viewBox="0 0 26 26" fill="none" xmlns="http://www.w3.org/2000/svg">
<path fill-rule="evenodd" clip-rule="evenodd" d="M3.12793 6.88184C3.12793 6.05303 3.45717 5.25818 4.04322 4.67213C4.62927 4.08608 5.42413 3.75684 6.25293 3.75684H18.7529C19.5817 3.75684 20.3766 4.08608 20.9626 4.67213C21.5487 5.25818 21.8779 6.05303 21.8779 6.88184V19.3818C21.8779 20.2106 21.5487 21.0055 20.9626 21.5915C20.3766 22.1776 19.5817 22.5068 18.7529 22.5068H6.25293C5.42413 22.5068 4.62927 22.1776 4.04322 21.5915C3.45717 21.0055 3.12793 20.2106 3.12793 19.3818V6.88184ZM13.5446 8.96517C13.5446 8.6889 13.4348 8.42395 13.2395 8.2286C13.0441 8.03325 12.7792 7.9235 12.5029 7.9235C12.2267 7.9235 11.9617 8.03325 11.7664 8.2286C11.571 8.42395 11.4613 8.6889 11.4613 8.96517V17.2985C11.4613 17.5748 11.571 17.8397 11.7664 18.0351C11.9617 18.2304 12.2267 18.3402 12.5029 18.3402C12.7792 18.3402 13.0441 18.2304 13.2395 18.0351C13.4348 17.8397 13.5446 17.5748 13.5446 17.2985V8.96517ZM9.37793 12.0902C9.37793 11.8139 9.26818 11.549 9.07283 11.3536C8.87748 11.1582 8.61253 11.0485 8.33626 11.0485C8.06 11.0485 7.79504 11.1582 7.59969 11.3536C7.40434 11.549 7.2946 11.8139 7.2946 12.0902V17.2985C7.2946 17.5748 7.40434 17.8397 7.59969 18.0351C7.79504 18.2304 8.06 18.3402 8.33626 18.3402C8.61253 18.3402 8.87748 18.2304 9.07283 18.0351C9.26818 17.8397 9.37793 17.5748 9.37793 17.2985V12.0902ZM17.7113 15.2152C17.7113 14.9389 17.6015 14.674 17.4062 14.4786C17.2108 14.2832 16.9459 14.1735 16.6696 14.1735C16.3933 14.1735 16.1284 14.2832 15.933 14.4786C15.7377 14.674 15.6279 14.9389 15.6279 15.2152V17.2985C15.6279 17.5748 15.7377 17.8397 15.933 18.0351C16.1284 18.2304 16.3933 18.3402 16.6696 18.3402C16.9459 18.3402 17.2108 18.2304 17.4062 18.0351C17.6015 17.8397 17.7113 17.5748 17.7113 17.2985V15.2152Z" fill="black"/>
</svg>
