<svg width="120" height="120" viewBox="0 0 120 120" fill="none" xmlns="http://www.w3.org/2000/svg">
<g filter="url(#filter0_d_460_6131)">
<path d="M115 95C115 97.6522 113.946 100.196 112.071 102.071C110.196 103.946 107.652 105 105 105H15C12.3478 105 9.8043 103.946 7.92893 102.071C6.05357 100.196 5 97.6522 5 95V40C5 37.3478 6.05357 34.8043 7.92893 32.9289C9.8043 31.0536 12.3478 30 15 30H35L45 15H75L85 30H105C107.652 30 110.196 31.0536 112.071 32.9289C113.946 34.8043 115 37.3478 115 40V95Z" stroke="black" stroke-width="2" stroke-linecap="round" stroke-linejoin="round"/>
<path d="M60 85C71.0457 85 80 76.0457 80 65C80 53.9543 71.0457 45 60 45C48.9543 45 40 53.9543 40 65C40 76.0457 48.9543 85 60 85Z" stroke="black" stroke-width="2" stroke-linecap="round" stroke-linejoin="round"/>
</g>
<defs>
<filter id="filter0_d_460_6131" x="-4" y="0" width="128" height="128" filterUnits="userSpaceOnUse" color-interpolation-filters="sRGB">
<feFlood flood-opacity="0" result="BackgroundImageFix"/>
<feColorMatrix in="SourceAlpha" type="matrix" values="0 0 0 0 0 0 0 0 0 0 0 0 0 0 0 0 0 0 127 0" result="hardAlpha"/>
<feOffset dy="4"/>
<feGaussianBlur stdDeviation="2"/>
<feComposite in2="hardAlpha" operator="out"/>
<feColorMatrix type="matrix" values="0 0 0 0 0 0 0 0 0 0 0 0 0 0 0 0 0 0 0.25 0"/>
<feBlend mode="normal" in2="BackgroundImageFix" result="effect1_dropShadow_460_6131"/>
<feBlend mode="normal" in="SourceGraphic" in2="effect1_dropShadow_460_6131" result="shape"/>
</filter>
</defs>
</svg>
