<svg width="31" height="25" viewBox="0 0 31 25" fill="none" xmlns="http://www.w3.org/2000/svg">
<path fill-rule="evenodd" clip-rule="evenodd" d="M4.57271 0C3.01641 0 1.71854 1.1901 1.58395 2.74056L0.0289562 20.6541C-0.173896 22.9909 1.66833 25 4.01397 25H26.5394C28.8851 25 30.7273 22.9909 30.5245 20.6541L28.9695 2.74056C28.8349 1.19009 27.537 0 25.9807 0H4.57271ZM20.0495 6.74748C19.3647 8.80183 17.4422 10.1875 15.2767 10.1875C13.1112 10.1875 11.1887 8.80183 10.5039 6.74748L9.73822 4.45033C9.60723 4.05737 9.18249 3.845 8.78953 3.97599C8.39658 4.10697 8.18421 4.53171 8.31519 4.92467L9.08091 7.22182C9.96986 9.88868 12.4656 11.6875 15.2767 11.6875C18.0878 11.6875 20.5835 9.88868 21.4725 7.22182L22.2382 4.92467C22.3692 4.53171 22.1568 4.10697 21.7639 3.97599C21.3709 3.845 20.9462 4.05737 20.8152 4.45033L20.0495 6.74748Z" fill="url(#paint0_linear_64_5209)"/>
<defs>
<linearGradient id="paint0_linear_64_5209" x1="15.2767" y1="0" x2="15.2767" y2="25" gradientUnits="userSpaceOnUse">
<stop stop-color="#B7B0AB"/>
<stop offset="1" stop-color="#4F3C3D"/>
</linearGradient>
</defs>
</svg>
