<svg width="31" height="31" viewBox="0 0 31 31" fill="none" xmlns="http://www.w3.org/2000/svg">
<g filter="url(#filter0_d_1001_7418)">
<path d="M20.502 0.576841L9.59078 4.20184C2.2562 6.65476 2.2562 10.6543 9.59078 13.0952L12.8291 14.1706L13.9045 17.4089C16.3454 24.7435 20.357 24.7435 22.7979 17.4089L26.4349 6.50976C28.0541 1.61601 25.3958 -1.05441 20.502 0.576841ZM20.8887 7.07767L16.297 11.6935C16.1158 11.8748 15.8862 11.9593 15.6566 11.9593C15.427 11.9593 15.1974 11.8748 15.0162 11.6935C14.6658 11.3431 14.6658 10.7631 15.0162 10.4127L19.6079 5.79684C19.9583 5.44642 20.5383 5.44642 20.8887 5.79684C21.2391 6.14726 21.2391 6.72726 20.8887 7.07767Z" fill="#292D32"/>
</g>
<defs>
<filter id="filter0_d_1001_7418" x="0.0898438" y="0.0976562" width="30.8193" height="30.8125" filterUnits="userSpaceOnUse" color-interpolation-filters="sRGB">
<feFlood flood-opacity="0" result="BackgroundImageFix"/>
<feColorMatrix in="SourceAlpha" type="matrix" values="0 0 0 0 0 0 0 0 0 0 0 0 0 0 0 0 0 0 127 0" result="hardAlpha"/>
<feOffset dy="4"/>
<feGaussianBlur stdDeviation="2"/>
<feComposite in2="hardAlpha" operator="out"/>
<feColorMatrix type="matrix" values="0 0 0 0 0 0 0 0 0 0 0 0 0 0 0 0 0 0 0.25 0"/>
<feBlend mode="normal" in2="BackgroundImageFix" result="effect1_dropShadow_1001_7418"/>
<feBlend mode="normal" in="SourceGraphic" in2="effect1_dropShadow_1001_7418" result="shape"/>
</filter>
</defs>
</svg>
