<svg width="24" height="24" viewBox="0 0 24 24" fill="none" xmlns="http://www.w3.org/2000/svg">
<path d="M11.9997 0.333984C9.69223 0.333984 7.4366 1.01822 5.51803 2.30017C3.59945 3.58212 2.10411 5.40421 1.22109 7.53601C0.338063 9.66782 0.107024 12.0136 0.557185 14.2767C1.00735 16.5398 2.11849 18.6186 3.7501 20.2502C5.38171 21.8818 7.46051 22.993 9.72363 23.4431C11.9867 23.8933 14.3325 23.6623 16.4643 22.7792C18.5961 21.8962 20.4182 20.4009 21.7002 18.4823C22.9821 16.5637 23.6663 14.3081 23.6663 12.0007C23.6663 10.4686 23.3646 8.95148 22.7783 7.53601C22.192 6.12055 21.3326 4.83442 20.2493 3.75107C19.1659 2.66772 17.8798 1.80836 16.4643 1.22206C15.0489 0.635752 13.5318 0.333984 11.9997 0.333984ZM16.328 14.6723C16.4374 14.7808 16.5242 14.9098 16.5834 15.052C16.6426 15.1941 16.6731 15.3466 16.6731 15.5007C16.6731 15.6547 16.6426 15.8072 16.5834 15.9493C16.5242 16.0915 16.4374 16.2205 16.328 16.329C16.2196 16.4383 16.0905 16.5251 15.9484 16.5844C15.8062 16.6436 15.6537 16.6741 15.4997 16.6741C15.3457 16.6741 15.1932 16.6436 15.051 16.5844C14.9088 16.5251 14.7798 16.4383 14.6713 16.329L11.9997 13.6573L9.32801 16.329C9.21956 16.4383 9.09052 16.5251 8.94835 16.5844C8.80618 16.6436 8.65369 16.6741 8.49968 16.6741C8.34566 16.6741 8.19318 16.6436 8.05101 16.5844C7.90884 16.5251 7.7798 16.4383 7.67135 16.329C7.562 16.2205 7.4752 16.0915 7.41597 15.9493C7.35674 15.8072 7.32625 15.6547 7.32625 15.5007C7.32625 15.3466 7.35674 15.1941 7.41597 15.052C7.4752 14.9098 7.562 14.7808 7.67135 14.6723L10.343 12.0007L7.67135 9.32898C7.45166 9.1093 7.32824 8.81134 7.32824 8.50065C7.32824 8.18997 7.45166 7.892 7.67135 7.67232C7.89103 7.45263 8.18899 7.32921 8.49968 7.32921C8.81036 7.32921 9.10833 7.45263 9.32801 7.67232L11.9997 10.344L14.6713 7.67232C14.891 7.45263 15.189 7.32921 15.4997 7.32921C15.8104 7.32921 16.1083 7.45263 16.328 7.67232C16.5477 7.892 16.6711 8.18997 16.6711 8.50065C16.6711 8.81134 16.5477 9.1093 16.328 9.32898L13.6563 12.0007L16.328 14.6723Z" fill="black"/>
</svg>
