<svg width="16" height="15" viewBox="0 0 16 15" fill="none" xmlns="http://www.w3.org/2000/svg">
<path d="M14.095 13.0125H2.69849C2.4389 13.0125 2.22363 12.8181 2.22363 12.5837C2.22363 12.3492 2.4389 12.1548 2.69849 12.1548H14.095C14.3546 12.1548 14.5699 12.3492 14.5699 12.5837C14.5699 12.8181 14.3546 13.0125 14.095 13.0125Z" fill="#F76436"/>
<path d="M12.8448 2.42015C11.6165 1.31081 10.4135 1.28222 9.15357 2.42015L8.38747 3.11206C8.32416 3.16924 8.29883 3.26074 8.32416 3.34079C8.80534 4.85613 10.1476 6.0684 11.8254 6.50298C11.8507 6.5087 11.8761 6.51442 11.9014 6.51442C11.971 6.51442 12.0344 6.49155 12.085 6.4458L12.8448 5.75389C13.4716 5.1935 13.7755 4.65027 13.7755 4.10132C13.7818 3.53521 13.4779 2.98626 12.8448 2.42015Z" fill="#F76436"/>
<path d="M10.6888 7.02032C10.5052 6.94026 10.3279 6.86021 10.157 6.76872C10.0177 6.69438 9.88473 6.61432 9.75177 6.52855C9.64414 6.46565 9.51751 6.37416 9.39721 6.28266C9.38455 6.27695 9.34023 6.24264 9.28958 6.19689C9.08064 6.03678 8.84638 5.83092 8.63744 5.60219C8.61845 5.59076 8.58679 5.55073 8.54247 5.49926C8.47916 5.43065 8.37152 5.31628 8.27655 5.18476C8.20058 5.09899 8.11194 4.97319 8.02963 4.84738C7.92833 4.69299 7.83969 4.5386 7.75105 4.37849C7.74096 4.35896 7.73112 4.33951 7.7215 4.32015C7.61885 4.11338 7.34885 4.04982 7.17754 4.20455L3.55333 7.47778C3.47102 7.55212 3.39504 7.69507 3.37605 7.79228L3.03415 9.98237C2.97084 10.3712 3.09114 10.7372 3.35705 10.9831C3.58498 11.1832 3.90155 11.2918 4.24345 11.2918C4.31943 11.2918 4.3954 11.2861 4.47138 11.2747L6.90264 10.9659C7.0166 10.9488 7.17489 10.8801 7.25087 10.8058L10.8023 7.59833C10.991 7.42791 10.9256 7.11299 10.6888 7.02032V7.02032Z" fill="#F76436"/>
</svg>
