<svg width="25" height="25" viewBox="0 0 25 25" fill="none" xmlns="http://www.w3.org/2000/svg">
<path d="M16.1929 2.31055H7.81293C4.17293 2.31055 2.00293 4.48055 2.00293 8.12055V16.4905C2.00293 20.1405 4.17293 22.3105 7.81293 22.3105H16.1829C19.8229 22.3105 21.9929 20.1405 21.9929 16.5005V8.12055C22.0029 4.48055 19.8329 2.31055 16.1929 2.31055ZM10.9529 17.8205C10.6629 18.1105 10.1129 18.3905 9.71293 18.4505L7.25293 18.8005C7.16293 18.8105 7.07293 18.8205 6.98293 18.8205C6.57293 18.8205 6.19293 18.6805 5.92293 18.4105C5.59293 18.0805 5.45293 17.6005 5.53293 17.0705L5.88293 14.6105C5.94293 14.2005 6.21293 13.6605 6.51293 13.3705L10.9729 8.91055C11.0529 9.12055 11.1329 9.33055 11.2429 9.57055C11.3429 9.78055 11.4529 10.0005 11.5729 10.2005C11.6729 10.3705 11.7829 10.5305 11.8729 10.6505C11.9829 10.8205 12.1129 10.9805 12.1929 11.0705C12.2429 11.1405 12.2829 11.1905 12.3029 11.2105C12.5529 11.5105 12.8429 11.7905 13.0929 12.0005C13.1629 12.0705 13.2029 12.1105 13.2229 12.1205C13.3729 12.2405 13.5229 12.3605 13.6529 12.4505C13.8129 12.5705 13.9729 12.6805 14.1429 12.7705C14.3429 12.8905 14.5629 13.0005 14.7829 13.1105C15.0129 13.2105 15.2229 13.3005 15.4329 13.3705L10.9529 17.8205ZM17.3729 11.4005L16.4529 12.3305C16.3929 12.3905 16.3129 12.4205 16.2329 12.4205C16.2029 12.4205 16.1629 12.4205 16.1429 12.4105C14.1129 11.8305 12.4929 10.2105 11.9129 8.18055C11.8829 8.07055 11.9129 7.95055 11.9929 7.88055L12.9229 6.95055C14.4429 5.43055 15.8929 5.46055 17.3829 6.95055C18.1429 7.71055 18.5129 8.44055 18.5129 9.20055C18.5029 9.92055 18.1329 10.6405 17.3729 11.4005Z" fill="black"/>
</svg>
