<svg width="145" height="145" viewBox="0 0 145 145" fill="none" xmlns="http://www.w3.org/2000/svg">
<path d="M54.3749 132.917C57.7116 132.917 60.4166 130.212 60.4166 126.875C60.4166 123.538 57.7116 120.833 54.3749 120.833C51.0382 120.833 48.3333 123.538 48.3333 126.875C48.3333 130.212 51.0382 132.917 54.3749 132.917Z" stroke="black" stroke-width="8.33333" stroke-linecap="round" stroke-linejoin="round"/>
<path d="M120.833 132.917C124.17 132.917 126.875 130.212 126.875 126.875C126.875 123.538 124.17 120.833 120.833 120.833C117.497 120.833 114.792 123.538 114.792 126.875C114.792 130.212 117.497 132.917 120.833 132.917Z" stroke="black" stroke-width="8.33333" stroke-linecap="round" stroke-linejoin="round"/>
<path d="M6.04175 6.04175H30.2084L46.4001 86.9397C46.9526 89.7212 48.4658 92.2198 50.6748 93.9981C52.8839 95.7764 55.648 96.7211 58.4834 96.6667H117.208C120.044 96.7211 122.808 95.7764 125.017 93.9981C127.226 92.2198 128.739 89.7212 129.292 86.9397L138.958 36.2501H36.2501" stroke="black" stroke-width="8.33333" stroke-linecap="round" stroke-linejoin="round"/>
</svg>
