<svg width="25" height="25" viewBox="0 0 25 25" fill="none" xmlns="http://www.w3.org/2000/svg">
<path d="M20.6833 13.9563V13.9463C19.8033 13.0163 18.5733 12.4463 17.2033 12.4463C14.5533 12.4463 12.4033 14.5963 12.4033 17.2463C12.4033 18.4763 12.8733 19.5963 13.6333 20.4463C14.5133 21.4263 15.7833 22.0463 17.2033 22.0463C19.8533 22.0463 22.0033 19.8963 22.0033 17.2463C22.0033 15.9763 21.5033 14.8163 20.6833 13.9563ZM18.9933 18.0563H17.9533V19.1463C17.9533 19.5563 17.6133 19.8963 17.2033 19.8963C16.7933 19.8963 16.4533 19.5563 16.4533 19.1463V18.0563H15.4133C14.9933 18.0563 14.6633 17.7263 14.6633 17.3063C14.6633 16.8963 14.9833 16.5663 15.4033 16.5563H16.4533V15.5563C16.4533 15.5363 16.4533 15.5163 16.4633 15.4963C16.4833 15.1163 16.8133 14.8063 17.2033 14.8063C17.6033 14.8063 17.9333 15.1263 17.9533 15.5263V16.5563H18.9933C19.4133 16.5563 19.7433 16.8963 19.7433 17.3063C19.7433 17.7263 19.4133 18.0563 18.9933 18.0563Z" fill="#292D32"/>
<path d="M22.0029 8.77555C22.0029 9.96555 21.8129 11.0655 21.4829 12.0855C21.4229 12.2955 21.1729 12.3555 20.9929 12.2255C19.9029 11.4155 18.5729 10.9855 17.2029 10.9855C13.7329 10.9855 10.9029 13.8155 10.9029 17.2855C10.9029 18.3655 11.1829 19.4255 11.7129 20.3655C11.8729 20.6455 11.6829 21.0055 11.3829 20.8955C8.97293 20.0755 4.10293 17.0855 2.52293 12.0855C2.19293 11.0655 2.00293 9.96555 2.00293 8.77555C2.00293 5.68555 4.49293 3.18555 7.56293 3.18555C9.37293 3.18555 10.9929 4.06555 12.0029 5.41555C13.0129 4.06555 14.6329 3.18555 16.4429 3.18555C19.5129 3.18555 22.0029 5.68555 22.0029 8.77555Z" fill="#292D32"/>
</svg>
