<?xml version="1.0" standalone="no"?>
<!DOCTYPE svg PUBLIC "-//W3C//DTD SVG 20010904//EN"
 "http://www.w3.org/TR/2001/REC-SVG-20010904/DTD/svg10.dtd">
<svg version="1.0" xmlns="http://www.w3.org/2000/svg"
 width="252.000000pt" height="238.000000pt" viewBox="0 0 252.000000 238.000000"
 preserveAspectRatio="xMidYMid meet">

<g transform="translate(0.000000,238.000000) scale(0.100000,-0.100000)"
fill="#000000" stroke="none">
<path d="M455 2279 c-186 -23 -345 -153 -412 -337 -112 -309 99 -650 422 -681
86 -8 171 2 250 31 l60 21 112 -37 c176 -59 193 -41 133 138 l-38 115 25 63
c31 77 42 209 23 289 -61 262 -306 432 -575 398z m153 -214 c74 -32 113 -87
114 -164 0 -61 -18 -95 -77 -150 -26 -24 -51 -55 -54 -70 -6 -22 -14 -26 -51
-29 -55 -4 -64 6 -55 60 6 36 17 53 66 98 47 44 59 62 59 86 0 43 -20 65 -66
71 -52 7 -80 -8 -102 -55 -18 -39 -42 -49 -88 -38 -62 16 3 153 91 192 41 18
118 17 163 -1z m-34 -486 c35 -28 35 -70 0 -98 -15 -12 -32 -21 -39 -21 -7 0
-24 9 -39 21 -43 34 -31 92 24 112 24 9 26 8 54 -14z"/>
<path d="M1483 1912 c-77 -28 -132 -70 -174 -134 -108 -168 -48 -386 133 -479
32 -17 66 -24 129 -27 78 -4 92 -2 148 23 71 32 142 103 174 173 32 71 30 188
-4 262 -37 79 -81 125 -155 161 -82 41 -174 48 -251 21z"/>
<path d="M2326 1770 c-61 -19 -83 -55 -136 -220 -27 -85 -62 -175 -78 -200
-62 -97 -168 -168 -282 -190 -29 -5 -148 -10 -265 -10 -164 0 -224 -4 -266
-16 -63 -18 -131 -59 -175 -106 -46 -47 -386 -596 -397 -639 -11 -47 18 -119
59 -146 38 -24 120 -24 157 1 15 10 81 104 149 215 67 108 127 203 135 211 11
12 13 -20 13 -193 0 -223 7 -258 51 -272 38 -13 575 -8 599 5 11 6 25 22 30
36 6 14 10 164 10 339 l0 313 38 7 c100 18 265 129 340 228 23 31 55 83 72
115 31 61 130 359 130 390 0 9 -9 36 -20 60 -15 33 -29 47 -62 62 -47 21 -59
23 -102 10z"/>
</g>
</svg>
