<svg width="36" height="29" viewBox="0 0 36 29" fill="none" xmlns="http://www.w3.org/2000/svg">
<g filter="url(#filter0_d_991_6998)">
<path d="M23.0909 0C23.4285 0 23.7522 0.138281 23.9909 0.384423C24.2295 0.630564 24.3636 0.964403 24.3636 1.3125V6.825L30.9984 2.03438C31.0938 1.96541 31.2057 1.92478 31.322 1.91691C31.4382 1.90904 31.5543 1.93423 31.6577 1.98974C31.761 2.04525 31.8475 2.12895 31.9079 2.23171C31.9683 2.33447 32.0001 2.45235 32 2.5725V18.4275C32.0001 18.5476 31.9683 18.6655 31.9079 18.7683C31.8475 18.871 31.761 18.9547 31.6577 19.0103C31.5543 19.0658 31.4382 19.091 31.322 19.0831C31.2057 19.0752 31.0938 19.0346 30.9984 18.9656L24.3636 14.175V19.6875C24.3636 20.0356 24.2295 20.3694 23.9909 20.6156C23.7522 20.8617 23.4285 21 23.0909 21H5.27273C4.93518 21 4.61146 20.8617 4.37277 20.6156C4.13409 20.3694 4 20.0356 4 19.6875V1.3125C4 0.964403 4.13409 0.630564 4.37277 0.384423C4.61146 0.138281 4.93518 0 5.27273 0H23.0909ZM12.1455 6.33806C12.0281 6.33804 11.9143 6.37983 11.8234 6.45636C11.7325 6.5329 11.67 6.63948 11.6465 6.75806L11.6364 6.86175V14.1356C11.6364 14.2206 11.6564 14.3044 11.6947 14.3797C11.733 14.455 11.7885 14.5195 11.8563 14.5678C11.9242 14.6161 12.0024 14.6467 12.0842 14.6569C12.1661 14.6671 12.2491 14.6567 12.3262 14.6265L12.4191 14.5792L17.9618 10.941C18.0265 10.8983 18.081 10.8411 18.1212 10.7737C18.1614 10.7062 18.1863 10.6303 18.194 10.5515C18.2017 10.4727 18.192 10.3932 18.1657 10.3188C18.1394 10.2444 18.0971 10.1771 18.042 10.122L17.9618 10.0564L12.4191 6.41813C12.337 6.36563 12.2421 6.337 12.1455 6.33806Z" fill="#F6212E"/>
</g>
<defs>
<filter id="filter0_d_991_6998" x="0" y="0" width="36" height="29" filterUnits="userSpaceOnUse" color-interpolation-filters="sRGB">
<feFlood flood-opacity="0" result="BackgroundImageFix"/>
<feColorMatrix in="SourceAlpha" type="matrix" values="0 0 0 0 0 0 0 0 0 0 0 0 0 0 0 0 0 0 127 0" result="hardAlpha"/>
<feOffset dy="4"/>
<feGaussianBlur stdDeviation="2"/>
<feComposite in2="hardAlpha" operator="out"/>
<feColorMatrix type="matrix" values="0 0 0 0 0 0 0 0 0 0 0 0 0 0 0 0 0 0 0.25 0"/>
<feBlend mode="normal" in2="BackgroundImageFix" result="effect1_dropShadow_991_6998"/>
<feBlend mode="normal" in="SourceGraphic" in2="effect1_dropShadow_991_6998" result="shape"/>
</filter>
</defs>
</svg>
