<svg width="25" height="17" viewBox="0 0 25 17" fill="none" xmlns="http://www.w3.org/2000/svg">
<path d="M1.99939 1.09814L0.0682642 4.76945C-0.104225 5.09801 0.0795042 5.49084 0.44699 5.59085L7.86777 7.60864C8.13401 7.68007 8.41899 7.57283 8.56148 7.34793L12.0038 1.91953L2.62185 0.78028C2.36312 0.751707 2.11564 0.876664 1.99939 1.09814ZM23.9393 4.76945L22.0081 1.09814C21.8919 0.876721 21.6407 0.748145 21.3819 0.78028L12.0038 1.91953L15.4423 7.35151C15.5848 7.57649 15.8698 7.68363 16.136 7.6122L23.5568 5.59441C23.928 5.49079 24.108 5.09801 23.9393 4.76945ZM15.9673 8.77645C15.3336 8.77645 14.7373 8.45503 14.4149 7.94077L12.0038 4.13375L9.59641 7.94077C9.27018 8.45861 8.67397 8.78003 8.04026 8.78003C7.87152 8.78003 7.70278 8.7587 7.54154 8.71222L2.40437 7.31225V13.6692C2.40437 14.1942 2.77934 14.6513 3.31181 14.7763L11.4188 16.7084C11.8013 16.7977 12.2025 16.7977 12.5812 16.7084L20.6957 14.7763C21.2282 14.6477 21.6032 14.1906 21.6032 13.6692V7.31225L16.466 8.70864C16.3047 8.75512 16.136 8.77645 15.9673 8.77645Z" fill="black"/>
</svg>
