<svg width="20" height="22" viewBox="0 0 20 22" fill="none" xmlns="http://www.w3.org/2000/svg">
<path d="M9.53335 0.389648C8.61539 0.389648 7.73608 0.597665 7.15675 1.25705C6.57741 1.91644 6.55881 2.61948 6.52529 3.04724C6.49177 3.47499 6.46386 3.74125 6.3992 3.90619C6.33454 4.07113 6.2812 4.19713 5.87666 4.43109C5.47212 4.66505 5.33664 4.64819 5.16171 4.62182C4.98678 4.59544 4.74274 4.48662 4.35616 4.30183C3.96959 4.11703 3.35231 3.78158 2.49256 3.95446C1.63283 4.12734 1.0133 4.78611 0.554319 5.58245C0.0953353 6.37879 -0.164383 7.24564 0.116023 8.07792C0.396424 8.91019 0.994984 9.27797 1.34803 9.52093C1.70109 9.76389 1.91723 9.92113 2.02749 10.0597C2.13775 10.1983 2.2201 10.3075 2.2201 10.7754C2.2201 11.2433 2.13775 11.3525 2.02749 11.4911C1.91723 11.6296 1.70109 11.7869 1.34803 12.0298C0.994984 12.2728 0.396424 12.6406 0.116023 13.4729C-0.164383 14.3051 0.0953353 15.172 0.554319 15.9683C1.0133 16.7647 1.63283 17.4234 2.49256 17.5963C3.35231 17.7692 3.96959 17.4337 4.35616 17.249C4.74274 17.0642 4.98678 16.9553 5.16171 16.929C5.33664 16.9026 5.47212 16.8857 5.87666 17.1197C6.2812 17.3536 6.33454 17.4797 6.3992 17.6446C6.46386 17.8095 6.49177 18.0758 6.52529 18.5035C6.55881 18.9313 6.57741 19.6343 7.15675 20.2937C7.73608 20.9531 8.61539 21.1611 9.53335 21.1611C10.4513 21.1611 11.3306 20.9531 11.91 20.2937C12.4893 19.6343 12.5079 18.9313 12.5414 18.5035C12.5749 18.0758 12.6028 17.8095 12.6675 17.6446C12.7322 17.4797 12.7855 17.3536 13.19 17.1197C13.5946 16.8857 13.7301 16.9026 13.905 16.929C14.0799 16.9553 14.324 17.0642 14.7105 17.249C15.0971 17.4337 15.7144 17.7692 16.5741 17.5963C17.4339 17.4234 18.0534 16.7647 18.5124 15.9683C18.9714 15.172 19.2311 14.3051 18.9507 13.4729C18.6703 12.6406 18.0717 12.2728 17.7187 12.0298C17.3656 11.7869 17.1495 11.6296 17.0392 11.4911C16.929 11.3525 16.8466 11.2433 16.8466 10.7754C16.8466 10.3075 16.929 10.1983 17.0392 10.0597C17.1495 9.92113 17.3656 9.76389 17.7187 9.52093C18.0717 9.27797 18.6703 8.91019 18.9507 8.07792C19.2311 7.24564 18.9714 6.37879 18.5124 5.58245C18.0534 4.78611 17.4339 4.12734 16.5741 3.95446C15.7144 3.78158 15.0971 4.11703 14.7105 4.30183C14.324 4.48662 14.0799 4.59544 13.905 4.62182C13.7301 4.64819 13.5946 4.66505 13.19 4.43109C12.7855 4.19713 12.7322 4.07113 12.6675 3.90619C12.6028 3.74125 12.5749 3.47499 12.5414 3.04724C12.5079 2.61948 12.4893 1.91644 11.91 1.25705C11.3306 0.597665 10.4513 0.389648 9.53335 0.389648ZM9.53417 6.27475C12.0333 6.27475 14.034 8.27503 14.034 10.7754C14.034 13.2758 12.0333 15.276 9.53417 15.276C7.03502 15.276 5.03434 13.2758 5.03434 10.7754C5.03434 8.27503 7.03502 6.27475 9.53417 6.27475Z" fill="black"/>
<path d="M9.53388 8.00684C8.01715 8.00684 6.76465 9.26008 6.76465 10.7757C6.76465 12.2913 8.01715 13.5445 9.53388 13.5445C11.0506 13.5445 12.3031 12.2913 12.3031 10.7757C12.3031 9.26008 11.0506 8.00684 9.53388 8.00684Z" fill="#020202"/>
</svg>
