<svg width="25" height="25" viewBox="0 0 25 25" fill="none" xmlns="http://www.w3.org/2000/svg">
<path d="M16.143 3.27059L7.11305 6.27059C1.04305 8.30059 1.04305 11.6106 7.11305 13.6306L9.79305 14.5206L10.683 17.2006C12.703 23.2706 16.023 23.2706 18.043 17.2006L21.053 8.18059C22.393 4.13059 20.193 1.92059 16.143 3.27059ZM16.463 8.65059L12.663 12.4706C12.513 12.6206 12.323 12.6906 12.133 12.6906C11.943 12.6906 11.753 12.6206 11.603 12.4706C11.313 12.1806 11.313 11.7006 11.603 11.4106L15.403 7.59059C15.693 7.30059 16.173 7.30059 16.463 7.59059C16.753 7.88059 16.753 8.36059 16.463 8.65059Z" fill="#292D32"/>
</svg>
