<svg width="26" height="26" viewBox="0 0 26 26" fill="none" xmlns="http://www.w3.org/2000/svg">
<g clip-path="url(#clip0_1142_7276)">
<path d="M25.0398 9.6304C24.8755 9.12204 24.4246 8.76098 23.8911 8.71291L16.6451 8.05496L13.7798 1.34847C13.5685 0.856971 13.0874 0.538818 12.5528 0.538818C12.0182 0.538818 11.537 0.856971 11.3257 1.34962L8.46044 8.05496L1.21323 8.71291C0.68074 8.76213 0.230997 9.12204 0.065696 9.6304C-0.0996054 10.1388 0.0530542 10.6963 0.455869 11.0478L5.93303 15.8513L4.31795 22.9658C4.19976 23.4889 4.4028 24.0296 4.83684 24.3434C5.07013 24.5119 5.34308 24.5977 5.61833 24.5977C5.85565 24.5977 6.09106 24.5338 6.30233 24.4073L12.5528 20.6717L18.8009 24.4073C19.2581 24.6824 19.8344 24.6573 20.2675 24.3434C20.7018 24.0287 20.9046 23.4878 20.7864 22.9658L19.1713 15.8513L24.6485 11.0488C25.0513 10.6963 25.2051 10.1397 25.0398 9.6304Z" fill="#FFC107"/>
</g>
<defs>
<clipPath id="clip0_1142_7276">
<rect width="25.1053" height="25.1053" fill="white"/>
</clipPath>
</defs>
</svg>
